<?xml version="1.0" encoding="UTF-8"?>
<svg id="_レイヤー_1" data-name="レイヤー 1" xmlns="http://www.w3.org/2000/svg" width="1280" height="400" viewBox="0 0 1280 400">
  <defs>
    <style>
      .cls-1 {
        fill: #fff;
        opacity: .6;
        stroke: #000;
        stroke-miterlimit: 10;
      }
    </style>
  </defs>
  <g>
    <path d="M566.61,181.17c0-3.54-.62-6.68-1.87-9.42-1.24-2.74-3.31-5.05-6.18-6.93-2.38-1.6-5.2-2.73-8.47-3.36-3.27-.64-7.11-.95-11.54-.95h-19.34v38.5h41.71c1.68-1.91,2.98-4.02,3.9-6.34,1.19-3.02,1.78-6.85,1.78-11.5Z"/>
    <polygon points="171.73 199 199.1 199 185.44 160.75 171.73 199"/>
    <path d="M671.37,158.01c-12.56,0-22.43,4.36-29.59,13.07-5.73,6.96-9.16,16.28-10.31,27.92h79.72c-1.16-11.64-4.6-20.96-10.35-27.92-7.19-8.72-17.02-13.07-29.47-13.07Z"/>
    <polygon points="877.76 183.71 871.57 199 903.73 199 909.89 183.71 877.76 183.71"/>
    <path d="M174.9,146.39h21.91l19.15,52.61h45.01v-52.61h16.44v52.61h11.06l48.96-52.61h19.92l-49.98,52.61h69.16v-52.61h16.44v52.61h62.01v-52.61h16.44v52.61h31.38v-52.61h34.61c7.47,0,13.7.48,18.68,1.45,4.98.97,9.46,2.7,13.45,5.19,4.48,2.82,7.98,6.38,10.5,10.67,2.52,4.29,3.78,9.73,3.78,16.31,0,7.32-1.54,13.64-4.56,19h35.11c.57-6.44,1.75-12.41,3.57-17.88,2.66-8,6.53-14.84,11.62-20.54,4.87-5.42,10.92-9.57,18.14-12.45,7.22-2.88,15.09-4.32,23.62-4.32s16.81,1.45,23.87,4.36c7.05,2.91,13.04,7.04,17.97,12.41,5.04,5.53,8.89,12.31,11.58,20.34,1.84,5.51,3.04,11.55,3.62,18.08h105.51l6.19-15.29h-32.3l7.14-17.51h32.13l7.14-17.51h37.74l-7.14,17.51h70.21l-13.3,32.8h20.49l4.71-11.55h140.08l-4.71,11.55h119.96l2.05-5.09h37.74l-2.05,5.09h19.1V-199H1V199h15.6v-52.61h16.44v48.48h61.67v-48.48h16.44v52.61h44.6l19.15-52.61ZM1149.59,155.66h66.81l-8.5,21.08h-66.98l8.67-21.08ZM1131.91,148.69l-9.01,22.27h-18.87l9.01-22.27h18.87ZM1108.28,148.69l-9.01,22.27h-18.87l9.01-22.27h18.87ZM994.55,148.69h89.93l-6.97,17.51h-90.1l7.14-17.51Z"/>
    <polygon points="871.37 199.5 871.16 200 903.32 200 903.53 199.5 871.37 199.5"/>
    <polygon points="941.44 199.5 941.24 200 961.72 200 961.92 199.5 941.44 199.5"/>
    <path d="M519.21,200h40.78c.16-.16.32-.33.48-.5h-41.26v.5Z"/>
    <rect x="392.96" y="199.5" width="62.01" height=".5"/>
    <path d="M728.36,199.5c.01.17.03.33.04.5h105.02l.2-.5h-105.27Z"/>
    <rect x="471.4" y="199.5" width="31.38" height=".5"/>
    <path d="M631.37,200h79.91c-.01-.17-.03-.34-.04-.5h-79.82c-.02.16-.03.33-.04.5Z"/>
    <polygon points="1102 199.5 1101.8 200 1221.76 200 1221.96 199.5 1102 199.5"/>
    <polygon points="0 200 16.6 200 16.6 199.5 .5 199.5 .5 -199.5 1279.5 -199.5 1279.5 199.5 1259.7 199.5 1259.5 200 1280 200 1280 -200 0 -200 0 200"/>
    <polygon points="171.37 200 199.45 200 199.28 199.5 171.55 199.5 171.37 200"/>
    <polygon points="306.89 199.5 306.42 200 376.52 200 376.52 199.5 306.89 199.5"/>
    <path d="M578.95,199.5c-.1.16-.18.34-.28.5h35.57c.01-.17.03-.33.04-.5h-35.34Z"/>
    <polygon points="277.41 200 287.54 200 288 199.5 277.41 199.5 277.41 200"/>
    <polygon points="216.15 199.5 216.33 200 260.98 200 260.98 199.5 216.15 199.5"/>
    <polygon points="111.15 199.5 111.15 200 155.38 200 155.56 199.5 111.15 199.5"/>
    <polygon points="16.6 269.98 33.04 269.98 33.04 209.47 94.71 209.47 94.71 269.98 111.15 269.98 111.15 200 16.6 200 16.6 269.98"/>
    <rect x="16.6" y="199" width="94.55" height=".5"/>
    <polygon points="207.1 221.42 163.69 221.42 171.37 200 155.38 200 129.91 269.98 146.59 269.98 158.71 235.54 212.17 235.54 224.29 269.98 241.8 269.98 216.33 200 199.45 200 207.1 221.42"/>
    <polygon points="155.75 199 155.56 199.5 171.55 199.5 171.73 199 155.75 199"/>
    <polygon points="199.1 199 199.28 199.5 216.15 199.5 215.96 199 199.1 199"/>
    <polygon points="277.41 210.88 277.41 200 260.98 200 260.98 269.98 277.41 269.98 277.41 228.07 289.7 214.95 338.59 269.98 359.92 269.98 302.15 204.49 306.42 200 287.54 200 277.41 210.88"/>
    <rect x="260.98" y="199" width="16.44" height=".5"/>
    <polygon points="288.47 199 288 199.5 306.89 199.5 307.37 199 288.47 199"/>
    <path d="M454.97,221.59c0,6.03-.46,11.08-1.37,15.15-.91,4.07-2.45,7.68-4.61,10.83-2.49,3.65-5.81,6.38-9.96,8.18-4.15,1.8-9.19,2.7-15.11,2.7s-10.89-.91-15.07-2.74c-4.18-1.83-7.48-4.54-9.92-8.13-2.16-3.15-3.69-6.67-4.61-10.54-.91-3.87-1.37-9.16-1.37-15.85v-21.18h-16.44v20.35c0,9.35.98,17.24,2.95,23.66,1.96,6.42,5.19,11.9,9.67,16.44,3.93,3.98,8.77,7,14.53,9.05,5.75,2.05,12.51,3.07,20.25,3.07s14.22-.97,19.92-2.91c5.7-1.94,10.68-5.01,14.94-9.21,4.48-4.43,7.71-9.97,9.67-16.64,1.96-6.67,2.95-14.48,2.95-23.45v-20.35h-16.44v21.59Z"/>
    <rect x="376.52" y="199" width="16.44" height=".5"/>
    <rect x="454.97" y="199" width="16.44" height=".5"/>
    <path d="M559.31,200.67c-2.71,2.49-6,4.19-9.88,5.1-3.87.91-8.41,1.37-13.61,1.37h-16.6v-7.15h-16.44v69.98h16.44v-49.14h23.16l41.34,49.14h21.33l-46.48-54.04c7.86-3.04,14.03-7.57,18.51-13.57.57-.77,1.11-1.56,1.61-2.37h-18.69c-.22.23-.45.45-.68.67Z"/>
    <rect x="502.78" y="199" width="16.44" height=".5"/>
    <path d="M560.93,199c-.15.17-.3.33-.46.5h18.48c.1-.16.18-.33.28-.5h-18.3Z"/>
    <path d="M711.63,208.23c0,16.21-3.64,28.62-10.92,37.23-7.28,8.61-17.06,12.91-29.34,12.91s-22.08-4.3-29.38-12.91c-7.3-8.6-10.96-21.01-10.96-37.23,0-2.86.12-5.6.35-8.23h-17.12c-.21,2.66-.33,5.4-.33,8.23,0,10.24,1.34,19.34,4.03,27.31,2.68,7.97,6.52,14.69,11.5,20.17s11.03,9.66,18.14,12.53c7.11,2.88,15.01,4.32,23.7,4.32s16.84-1.41,23.78-4.23c6.94-2.82,12.96-7.03,18.05-12.62,4.92-5.37,8.76-12.08,11.5-20.13,2.74-8.05,4.11-17.17,4.11-27.35,0-2.83-.11-5.56-.32-8.23h-17.13c.23,2.63.35,5.37.35,8.23Z"/>
    <path d="M711.18,199c.02.17.04.33.05.5h17.12c-.01-.17-.03-.33-.04-.5h-17.13Z"/>
    <path d="M614.34,199c-.01.17-.03.33-.04.5h17.12c.02-.17.04-.33.05-.5h-17.13Z"/>
    <polygon points="876.06 267.69 913.8 267.69 941.24 200 903.32 200 876.06 267.69"/>
    <polygon points="806.02 267.69 843.76 267.69 871.16 200 833.42 200 806.02 267.69"/>
    <polygon points="903.73 199 903.53 199.5 941.44 199.5 941.64 199 903.73 199"/>
    <polygon points="833.83 199 833.63 199.5 871.37 199.5 871.57 199 833.83 199"/>
    <polygon points="952.56 222.47 1006.79 222.47 988.43 267.69 1026.34 267.69 1044.7 222.47 1092.64 222.47 1101.8 200 961.72 200 952.56 222.47"/>
    <polygon points="962.13 199 961.92 199.5 1102 199.5 1102.21 199 962.13 199"/>
    <polygon points="1208.58 232.67 1118.48 232.67 1104.2 267.69 1232.21 267.69 1259.5 200 1221.76 200 1208.58 232.67"/>
    <polygon points="1222.16 199 1221.96 199.5 1259.7 199.5 1259.9 199 1222.16 199"/>
  </g>
  <rect class="cls-1" width="1280" height="400"/>
</svg>